<?xml version="1.0" encoding="UTF-8" standalone="no"?>
<svg
   version="1.1"
   width="349"
   height="350"
   id="svg3"
   sodipodi:docname="icon.svg"
   inkscape:version="1.4.3 (0d15f75, 2025-12-25)"
   inkscape:export-filename="icon.png"
   inkscape:export-xdpi="96"
   inkscape:export-ydpi="96"
   xmlns:inkscape="http://www.inkscape.org/namespaces/inkscape"
   xmlns:sodipodi="http://sodipodi.sourceforge.net/DTD/sodipodi-0.dtd"
   xmlns="http://www.w3.org/2000/svg"
   xmlns:svg="http://www.w3.org/2000/svg">
  <defs
     id="defs3" />
  <sodipodi:namedview
     id="namedview3"
     pagecolor="#505050"
     bordercolor="#ffffff"
     borderopacity="1"
     inkscape:showpageshadow="0"
     inkscape:pageopacity="0"
     inkscape:pagecheckerboard="1"
     inkscape:deskcolor="#505050"
     inkscape:zoom="2.0899263"
     inkscape:cx="90.912298"
     inkscape:cy="113.40113"
     inkscape:window-width="2560"
     inkscape:window-height="1329"
     inkscape:window-x="1440"
     inkscape:window-y="528"
     inkscape:window-maximized="1"
     inkscape:current-layer="svg2" />
  <svg
     width="349"
     height="350"
     fill="none"
     version="1.1"
     id="svg2">
    <path
       d="M 194.8,259.275 107.476,171.95 145.28,134.146 194.8,183.639 311.169,67.271 349,105.075 Z"
       fill="#ed3833"
       id="path1" />
    <path
       d="m 224.802,263.436 c -14.289,7.883 -29.974,11.825 -47.111,11.825 -13.769,0 -26.526,-2.6 -38.297,-7.801 -3.284,-1.451 -6.159,-3.395 -9.225,-5.147 l -63.262,15.33 20.914,-64.741 c -4.544,-11.551 -6.87,-23.815 -6.87,-36.873 0,-13.441 2.518,-26.197 7.555,-38.297 5.036,-12.099 11.853,-22.583 20.421,-31.48 8.541,-8.897 18.724,-15.932 30.467,-21.16 11.744,-5.202 24.501,-7.802 38.297,-7.802 14.782,0 28.442,2.847 41.062,8.568 6.761,3.066 12.975,6.816 18.724,11.141 l 53.27,-54.94 C 278.018,31.219 263.866,22.185 248.208,15.068 226.363,5.158 202.876,0.204 177.691,0.204 153.52,0.204 130.662,4.748 109.173,13.809 87.684,22.869 68.878,35.407 52.754,51.339 36.631,67.299 23.874,85.858 14.458,107.018 5.04,128.179 0.36,150.845 0.36,175.016 c 0,24.172 4.708,46.865 14.098,68.026 9.39,21.16 22.173,39.638 38.297,55.405 16.123,15.795 34.93,28.223 56.418,37.284 21.489,9.061 44.347,13.605 68.518,13.605 27.539,0 52.97,-5.803 76.32,-17.382 23.323,-11.58 43.06,-27.293 59.183,-47.112 l -53.407,-52.887 c -9.034,13.085 -20.695,23.597 -34.985,31.481 z"
       fill="#000000"
       id="path2" />
    <rect
       style="fill:#0000ff;stroke-width:1.31561"
       id="rect10-7-9"
       width="53.61433"
       height="84.767159"
       x="267.47519"
       y="-92.662415"
       transform="rotate(45)"
       sodipodi:insensitive="true" />
    <rect
       style="fill:#e3ab00;stroke-width:1.31561;fill-opacity:1"
       id="rect10-7-9-3"
       width="53.652859"
       height="82.481987"
       x="267.4812"
       y="-172.39479"
       transform="rotate(45)" />
  </svg>
  <style
     id="style2">@media (prefers-color-scheme: light) { :root { filter: none; } }
@media (prefers-color-scheme: dark) { :root { filter: none; } }
</style>
</svg>
