<?xml version="1.0" encoding="UTF-8" standalone="no"?>
<svg
   width="576.96027"
   height="199.33501"
   viewBox="0 0 576.96027 199.33501"
   fill="none"
   version="1.1"
   id="svg5"
   sodipodi:docname="logo-default.svg"
   inkscape:export-filename="logo.png"
   inkscape:export-xdpi="104.32609"
   inkscape:export-ydpi="104.32609"
   inkscape:version="1.4.3 (0d15f75, 2025-12-25)"
   xmlns:inkscape="http://www.inkscape.org/namespaces/inkscape"
   xmlns:sodipodi="http://sodipodi.sourceforge.net/DTD/sodipodi-0.dtd"
   xmlns="http://www.w3.org/2000/svg"
   xmlns:svg="http://www.w3.org/2000/svg">
  <defs
     id="defs5" />
  <sodipodi:namedview
     id="namedview5"
     pagecolor="#505050"
     bordercolor="#ffffff"
     borderopacity="1"
     inkscape:showpageshadow="0"
     inkscape:pageopacity="0"
     inkscape:pagecheckerboard="1"
     inkscape:deskcolor="#505050"
     inkscape:zoom="1.5406271"
     inkscape:cx="319.35047"
     inkscape:cy="52.251449"
     inkscape:window-width="2560"
     inkscape:window-height="1382"
     inkscape:window-x="1440"
     inkscape:window-y="528"
     inkscape:window-maximized="1"
     inkscape:current-layer="wordmark"
     inkscape:export-bgcolor="#ffffffff">
    <inkscape:page
       x="0"
       y="0"
       width="576.96027"
       height="199.33501"
       id="page1"
       margin="0"
       bleed="0" />
  </sodipodi:namedview>
  <g
     id="wordmark"
     fill="#000000"
     transform="translate(128.8479,-0.03)">
    <path
       d="m 312.862,0.03 -22.001,0.151 22.001,-0.15 z M 290.349,199.365 H 264.49 l -2.863,-7.535 -37.884,-0.271 -4.37,7.806 H 196.8 l 40.204,-92.163 h 16.003 z m -33.635,-26.13 -12.838,-30.5 -13.261,30.078 z m 110.367,-65.762 v 18.596 h -31.193 l -0.121,73.296 -22.001,-0.151 v -73.296 h -30.801 v -18.595 z m -235.47,-0.271 v 35.412 h 34.598 v -35.412 h 22.001 v 92.163 h -22.151 v -35.563 h -34.448 v 35.563 H 109.61 v -92.163 z"
       id="path1"
       sodipodi:nodetypes="ccccccccccccccccccccccccccccccccccccccc" />
    <path
       d="m 448.11235,72.85957 h -19.138 v 20.103 h 19.138 z"
       id="path2" />
    <path
       d="m 192.1973,92.4465 -25.858,-5e-4 -2.86301,-7.5345 -37.884,-0.271 -4.37001,7.806 h -22.574 l 40.20501,-92.163 h 16.003 z m -33.63401,-26.09965 -12.839,-30.5 -13.261,30.078 z"
       id="path1-4"
       sodipodi:nodetypes="ccccccccccccc" />
    <path
       d="M 110.01619,0.51176352 V 19.107763 H 78.823193 l -0.121,73.296 -22.001,-0.151 v -73.296 h -30.801 V 0.36176353 Z"
       id="path1-4-0"
       sodipodi:nodetypes="ccccccccc"
       inkscape:label="path1-4-0" />
    <path
       d="m -128.8479,1.2956614 h 25 l 20,53.7343386 20,-53.7343386 h 25 l -35,90.2107296 h -20 z"
       id="path1-4-3"
       sodipodi:nodetypes="cccccccc"
       style="stroke-width:0.970819" />
  </g>
  <g
     id="brand-mark"
     transform="matrix(0.26332,0,0,0.26332,138.8479,107.172)">
    <path
       d="m 224.802,263.436 c -14.289,7.883 -29.974,11.825 -47.111,11.825 -13.769,0 -26.526,-2.6 -38.297,-7.801 -3.284,-1.451 -6.159,-3.395 -9.225,-5.147 l -63.262,15.33 20.914,-64.741 c -4.544,-11.551 -6.87,-23.815 -6.87,-36.873 0,-13.441 2.518,-26.197 7.555,-38.297 5.036,-12.099 11.853,-22.583 20.421,-31.48 8.541,-8.897 18.724,-15.932 30.467,-21.16 11.744,-5.202 24.501,-7.802 38.297,-7.802 14.782,0 28.442,2.847 41.062,8.568 6.761,3.066 12.975,6.816 18.724,11.141 l 53.27,-54.94 C 278.018,31.219 263.866,22.185 248.208,15.068 226.363,5.158 202.876,0.204 177.691,0.204 153.52,0.204 130.662,4.748 109.173,13.809 87.684,22.869 68.878,35.407 52.754,51.339 36.631,67.299 23.874,85.858 14.458,107.018 5.04,128.179 0.36,150.845 0.36,175.016 c 0,24.172 4.708,46.865 14.098,68.026 9.39,21.16 22.173,39.638 38.297,55.405 16.123,15.795 34.93,28.223 56.418,37.284 21.489,9.061 44.347,13.605 68.518,13.605 27.539,0 52.97,-5.803 76.32,-17.382 23.323,-11.58 43.06,-27.293 59.183,-47.112 l -53.407,-52.887 c -9.034,13.085 -20.695,23.597 -34.985,31.481 z"
       fill="#000000"
       id="path3" />
    <path
       d="M 194.8,259.275 107.476,171.95 145.28,134.146 194.8,183.639 311.169,67.271 349,105.075 Z"
       fill="#ed3833"
       id="path4" />
    <rect
       width="53.613998"
       height="84.766998"
       x="267.47501"
       y="-92.662003"
       fill="#0000ff"
       transform="rotate(45)"
       id="rect4" />
    <rect
       width="53.653"
       height="82.482002"
       x="267.48099"
       y="-172.395"
       fill="#e3ab00"
       transform="rotate(45)"
       id="rect5" />
  </g>
  <g
     id="brand-mark-1"
     transform="matrix(0.19233503,0,0,0.25041531,82.568379,9.02877)">
    <rect
       width="157.88319"
       height="0"
       x="398.85419"
       y="-232.38272"
       fill="#0000ff"
       transform="rotate(45)"
       id="rect4-8" />
    <circle
       style="fill:none;stroke:#000000;stroke-width:75.16;stroke-dasharray:none;stroke-opacity:1"
       id="path6-0"
       cx="193.44162"
       cy="148.65178"
       r="142.10927" />
  </g>
  <g
     id="brand-mark-1-0"
     transform="matrix(0.20221903,0,0,0.26328403,410.47295,8.4827974)">
    <rect
       width="157.88319"
       height="0"
       x="398.85419"
       y="-232.38272"
       fill="#0000ff"
       transform="rotate(45)"
       id="rect4-8-3" />
    <circle
       style="fill:none;stroke:#000000;stroke-width:75.16;stroke-dasharray:none;stroke-opacity:1"
       id="path6-0-1"
       cx="193.44162"
       cy="148.65178"
       r="142.10927" />
  </g>
  <path
     style="fill:#000000;fill-opacity:1;stroke:none;stroke-width:19.378;stroke-dasharray:none;stroke-opacity:1"
     d="M 330,92.416 V 0.364 h 15 L 367.5,67.611496 390,0.364 h 15 V 92.416 H 390 V 40.037766 l -15,50.87348 H 360 L 345,40.162806 V 92.416 Z"
     id="path7"
     sodipodi:nodetypes="cccccccccccccc" />
  <path
     style="fill:#000000;stroke:none;stroke-width:6.981"
     d="m 494.65946,88.361653 v -20.20281 c 0,0 11.35901,8.03244 24.82755,8.03244 13.46855,0 14.60445,-7.30222 14.60445,-9.65516 0,-2.352936 0.16227,-6.490861 -15.33467,-11.52128 -15.49693,-5.030419 -24.17846,-12.089233 -24.17846,-25.070959 0,-12.981727 5.35496,-18.336689 5.35496,-18.336689 0,0 8.85873,-9.0381368 18.07936,-10.0706813 2.42225,-0.2712487 9.2634,-1.04492205 13.807,-0.3147 4.54361,0.730222 15.49694,3.975654 16.06489,4.381333 0.56795,0.405679 0,20.6084903 0,20.6084903 0,0 -12.98173,-6.653135 -21.33871,-6.571999 -8.35699,0.08114 -15.25353,2.596346 -15.25353,8.113579 0,5.517234 13.92974,9.020532 18.41782,10.22311 4.48809,1.202578 21.25758,5.59837 21.25758,29.533426 0,23.93506 -25.23323,27.26163 -29.45229,27.26163 -4.21906,0 -20.12168,0.32454 -26.85595,-6.40973 z"
     id="path5"
     sodipodi:nodetypes="ccsssscssscsssssc" />
</svg>
