<?xml version="1.0" encoding="UTF-8" standalone="no"?>
<svg
   width="576.96027"
   height="199.33501"
   viewBox="0 0 576.96027 199.33501"
   fill="none"
   version="1.1"
   id="svg5"
   sodipodi:docname="logo-default.svg"
   inkscape:export-filename="logo.webp"
   inkscape:export-xdpi="104.32609"
   inkscape:export-ydpi="104.32609"
   inkscape:version="1.4.3 (0d15f75, 2025-12-25)"
   xmlns:inkscape="http://www.inkscape.org/namespaces/inkscape"
   xmlns:sodipodi="http://sodipodi.sourceforge.net/DTD/sodipodi-0.dtd"
   xmlns="http://www.w3.org/2000/svg"
   xmlns:svg="http://www.w3.org/2000/svg">
  <defs
     id="defs5" />
  <sodipodi:namedview
     id="namedview5"
     pagecolor="#505050"
     bordercolor="#ffffff"
     borderopacity="1"
     inkscape:showpageshadow="0"
     inkscape:pageopacity="0"
     inkscape:pagecheckerboard="1"
     inkscape:deskcolor="#505050"
     inkscape:zoom="2.371134"
     inkscape:cx="-22.984783"
     inkscape:cy="58.832609"
     inkscape:window-width="1440"
     inkscape:window-height="2502"
     inkscape:window-x="0"
     inkscape:window-y="30"
     inkscape:window-maximized="1"
     inkscape:current-layer="svg5"
     inkscape:export-bgcolor="#ffffffff">
    <inkscape:page
       x="0"
       y="0"
       width="576.96027"
       height="199.33501"
       id="page2"
       margin="0"
       bleed="0" />
  </sodipodi:namedview>
  <g
     id="wordmark"
     fill="#000000"
     transform="translate(128.8479,-0.03)">
    <path
       d="m 312.862,0.03 -22.001,0.151 22.001,-0.15 z M 290.349,199.365 H 264.49 l -2.863,-7.535 -37.884,-0.271 -4.37,7.806 H 196.8 l 40.204,-92.163 h 16.003 z m -33.635,-26.13 -12.838,-30.5 -13.261,30.078 z m 110.367,-65.762 v 18.596 h -31.193 l -0.121,73.296 -22.001,-0.151 v -73.296 h -30.801 v -18.595 z m -235.47,-0.271 v 35.412 h 34.598 v -35.412 h 22.001 v 92.163 h -22.151 v -35.563 h -34.448 v 35.563 H 109.61 v -92.163 z"
       id="path1"
       sodipodi:nodetypes="ccccccccccccccccccccccccccccccccccccccc" />
    <path
       d="m 448.11235,72.85957 h -19.138 v 20.103 h 19.138 z"
       id="path2" />
    <path
       d="m 198.1973,92.44685 h -25.858 l -2.86301,-7.535 -37.884,-0.271 -4.37001,7.806 h -22.574 L 144.85329,0.28384998 h 16.003 z m -33.63401,-26.1 -12.839,-30.5 -13.261,30.078 z"
       id="path1-4"
       sodipodi:nodetypes="ccccccccccccc" />
    <path
       d="M 117.15614,0.51176352 V 19.107763 H 85.963143 l -0.121,73.296 -22.001,-0.151 v -73.296 h -30.801 V 0.36176353 Z"
       id="path1-4-0"
       sodipodi:nodetypes="ccccccccc"
       inkscape:label="path1-4-0" />
    <path
       d="m -128.8479,1.2956614 h 24.89829 L -85.152349,51.454721 -60.507078,1.2956614 h 21.736182 L -77.483721,91.506391 H -92.89278 Z"
       id="path1-4-3"
       sodipodi:nodetypes="cccccccc"
       style="stroke-width:0.970819" />
    <text
       xml:space="preserve"
       style="font-style:normal;font-variant:normal;font-weight:normal;font-stretch:normal;font-size:144.844px;font-family:'Andale Mono';-inkscape-font-specification:'Andale Mono';writing-mode:lr-tb;direction:ltr;fill:#000000;fill-opacity:1;stroke:#000000;stroke-width:7.68397;stroke-dasharray:none;stroke-opacity:1"
       x="384.39844"
       y="79.235596"
       id="text8"
       transform="scale(0.90725117,1.1022306)"><tspan
         sodipodi:role="line"
         id="tspan8"
         x="384.39844"
         y="79.235596"
         style="font-style:normal;font-variant:normal;font-weight:normal;font-stretch:normal;font-family:'Andale Mono';-inkscape-font-specification:'Andale Mono';stroke:#000000;stroke-width:7.68397;stroke-dasharray:none;stroke-opacity:1">s</tspan></text>
  </g>
  <g
     id="brand-mark"
     transform="matrix(0.26332,0,0,0.26332,138.8479,107.172)">
    <path
       d="m 224.802,263.436 c -14.289,7.883 -29.974,11.825 -47.111,11.825 -13.769,0 -26.526,-2.6 -38.297,-7.801 -3.284,-1.451 -6.159,-3.395 -9.225,-5.147 l -63.262,15.33 20.914,-64.741 c -4.544,-11.551 -6.87,-23.815 -6.87,-36.873 0,-13.441 2.518,-26.197 7.555,-38.297 5.036,-12.099 11.853,-22.583 20.421,-31.48 8.541,-8.897 18.724,-15.932 30.467,-21.16 11.744,-5.202 24.501,-7.802 38.297,-7.802 14.782,0 28.442,2.847 41.062,8.568 6.761,3.066 12.975,6.816 18.724,11.141 l 53.27,-54.94 C 278.018,31.219 263.866,22.185 248.208,15.068 226.363,5.158 202.876,0.204 177.691,0.204 153.52,0.204 130.662,4.748 109.173,13.809 87.684,22.869 68.878,35.407 52.754,51.339 36.631,67.299 23.874,85.858 14.458,107.018 5.04,128.179 0.36,150.845 0.36,175.016 c 0,24.172 4.708,46.865 14.098,68.026 9.39,21.16 22.173,39.638 38.297,55.405 16.123,15.795 34.93,28.223 56.418,37.284 21.489,9.061 44.347,13.605 68.518,13.605 27.539,0 52.97,-5.803 76.32,-17.382 23.323,-11.58 43.06,-27.293 59.183,-47.112 l -53.407,-52.887 c -9.034,13.085 -20.695,23.597 -34.985,31.481 z"
       fill="#000000"
       id="path3" />
    <path
       d="M 194.8,259.275 107.476,171.95 145.28,134.146 194.8,183.639 311.169,67.271 349,105.075 Z"
       fill="#ed3833"
       id="path4" />
    <rect
       width="53.613998"
       height="84.766998"
       x="267.47501"
       y="-92.662003"
       fill="#0000ff"
       transform="rotate(45)"
       id="rect4" />
    <rect
       width="53.653"
       height="82.482002"
       x="267.48099"
       y="-172.395"
       fill="#e3ab00"
       transform="rotate(45)"
       id="rect5" />
  </g>
  <g
     id="brand-mark-1"
     transform="matrix(0.20221903,0,0,0.26328403,86.633934,8.2089956)">
    <rect
       width="157.88319"
       height="0"
       x="398.85419"
       y="-232.38272"
       fill="#0000ff"
       transform="rotate(45)"
       id="rect4-8" />
    <circle
       style="fill:none;stroke:#000000;stroke-width:75.16;stroke-dasharray:none;stroke-opacity:1"
       id="path6-0"
       cx="193.44162"
       cy="148.65178"
       r="142.10927" />
  </g>
  <g
     id="brand-mark-1-0"
     transform="matrix(0.20221903,0,0,0.26328403,410.47295,8.4827974)">
    <rect
       width="157.88319"
       height="0"
       x="398.85419"
       y="-232.38272"
       fill="#0000ff"
       transform="rotate(45)"
       id="rect4-8-3" />
    <circle
       style="fill:none;stroke:#000000;stroke-width:75.16;stroke-dasharray:none;stroke-opacity:1"
       id="path6-0-1"
       cx="193.44162"
       cy="148.65178"
       r="142.10927" />
  </g>
  <path
     style="fill:#000000;fill-opacity:1;stroke:none;stroke-width:19.378;stroke-dasharray:none;stroke-opacity:1"
     d="M 329.42052,92.537626 V 0.36406582 h 18.62942 L 370.0933,67.611496 394.50836,0.00856582 h 13.6987 V 92.574456 l -14.02907,0.0657 -0.17082,-52.60239 -17.96437,50.87348 h -14.00478 l -18.12478,-50.74844 v 52.32166 z"
     id="path7"
     sodipodi:nodetypes="cccccccccccccc" />
</svg>
