<?xml version="1.0" encoding="UTF-8" standalone="no"?>
<svg
   width="1123.2938"
   height="114.55411"
   viewBox="0 0 1123.2938 114.55411"
   fill="none"
   version="1.1"
   id="svg11"
   sodipodi:docname="logo-large.svg"
   inkscape:export-filename="logo-large.svg"
   inkscape:export-xdpi="96"
   inkscape:export-ydpi="96"
   inkscape:version="1.4.3 (0d15f75, 2025-12-25)"
   xmlns:inkscape="http://www.inkscape.org/namespaces/inkscape"
   xmlns:sodipodi="http://sodipodi.sourceforge.net/DTD/sodipodi-0.dtd"
   xmlns="http://www.w3.org/2000/svg"
   xmlns:svg="http://www.w3.org/2000/svg">
  <defs
     id="defs11" />
  <sodipodi:namedview
     id="namedview11"
     pagecolor="#505050"
     bordercolor="#ffffff"
     borderopacity="1"
     inkscape:showpageshadow="0"
     inkscape:pageopacity="0"
     inkscape:pagecheckerboard="1"
     inkscape:deskcolor="#505050"
     inkscape:zoom="1.679707"
     inkscape:cx="193.78379"
     inkscape:cy="-60.724876"
     inkscape:window-width="2560"
     inkscape:window-height="1329"
     inkscape:window-x="1440"
     inkscape:window-y="528"
     inkscape:window-maximized="1"
     inkscape:current-layer="wordmark">
    <inkscape:page
       x="0"
       y="0"
       width="1123.2938"
       height="114.55411"
       id="page2"
       margin="0"
       bleed="0" />
  </sodipodi:namedview>
  <g
     id="wordmark"
     fill="#000000"
     transform="translate(243.9898,-0.06601848)">
    <path
       d="m 787.55,111.863 h -30.921 l -3.423,-9.01 -45.3,-0.324 -5.226,9.334 H 675.687 L 723.762,1.65759 h 19.137 z M 747.331,80.6175 731.979,44.1467 716.122,80.1129 Z"
       id="path1" />
    <path
       d="m 130.71602,112.22147 h -30.921 l -3.423,-9.01 -45.3,-0.324 -5.226,9.334 h -26.993 L 66.92802,2.0160572 h 19.137 z m -40.219,-31.245503 -15.352,-36.4708 -15.857,35.9662 z"
       id="path1-7" />
    <path
       d="m 879.304,1.9822 v 22.2356 h -37.3 l -0.144,87.6452 -26.308,-0.18 V 24.0376 H 778.721 V 1.802 Z"
       id="path2" />
    <path
       d="M 42.82611,2.1030955 V 24.338696 h -37.3 l -0.144,87.645204 -26.308,-0.18 V 24.158496 h -36.831 V 1.9228955 Z"
       id="path2-8" />
    <path
       d="M 597.737,1.65759 V 44.0026 h 41.372 V 1.65759 h 26.307 V 111.863 H 638.928 V 69.3375 H 597.737 V 111.863 H 571.429 V 1.65759 Z"
       id="path3" />
    <path
       d="m 438.261,87.8771 h -22.884 v 24.0379 h 22.884 z"
       id="path8" />
    <path
       d="m -243.98979,1 h 31.15154 L -189.32003,63.756594 -158.48505,1 h 27.19525 l -48.43561,112.86731 h -19.27907 z"
       id="path1-4-3"
       sodipodi:nodetypes="cccccccc"
       style="stroke-width:1.21464" />
    <g
       id="brand-mark-1"
       transform="matrix(0.24038999,0,0,0.31298165,-144.21277,11.8554)">
      <rect
         width="157.88319"
         height="0"
         x="398.85419"
         y="-232.38272"
         fill="#0000ff"
         transform="rotate(45)"
         id="rect4-8" />
      <circle
         style="fill:none;stroke:#000000;stroke-width:75.16;stroke-dasharray:none;stroke-opacity:1"
         id="path6-0"
         cx="193.44162"
         cy="148.65178"
         r="142.10927" />
    </g>
    <path
       style="fill:#000000;fill-opacity:1;stroke:none;stroke-width:23.6124;stroke-dasharray:none;stroke-opacity:1"
       d="M 143.54589,113.34808 V 1.0329881 h 22.70027 L 193.10639,82.97516 222.85656,0.59980507 h 16.69211 V 113.39296 l -17.09467,0.0801 -0.20815,-64.096933 -21.88989,61.990223 h -17.06507 l -22.08537,-61.8379 v 63.75486 z"
       id="path7"
       sodipodi:nodetypes="cccccccccccccc" />
    <text
       xml:space="preserve"
       style="font-style:normal;font-variant:normal;font-weight:normal;font-stretch:normal;font-size:172.671px;font-family:'Andale Mono';-inkscape-font-specification:'Andale Mono';writing-mode:lr-tb;direction:ltr;fill:#000000;fill-opacity:1;stroke:#000000;stroke-width:9.16018;stroke-dasharray:none;stroke-opacity:1"
       x="361.25946"
       y="94.851768"
       id="text8"
       transform="scale(0.90725117,1.1022306)"><tspan
         sodipodi:role="line"
         id="tspan8"
         x="361.25946"
         y="94.851768"
         style="font-style:normal;font-variant:normal;font-weight:normal;font-stretch:normal;font-family:'Andale Mono';-inkscape-font-specification:'Andale Mono';stroke:#000000;stroke-width:9.16018;stroke-dasharray:none;stroke-opacity:1">s</tspan></text>
    <g
       id="brand-mark-1-5"
       transform="matrix(0.24038999,0,0,0.31298165,243.66642,10.688007)">
      <rect
         width="157.88319"
         height="0"
         x="398.85419"
         y="-232.38272"
         fill="#0000ff"
         transform="rotate(45)"
         id="rect4-8-3" />
      <circle
         style="fill:none;stroke:#000000;stroke-width:75.16;stroke-dasharray:none;stroke-opacity:1"
         id="path6-0-5"
         cx="193.44162"
         cy="148.65178"
         r="142.10927" />
    </g>
  </g>
  <g
     id="brand-mark"
     transform="matrix(0.32362,0,0,0.32362,693.5998,-0.06601848)">
    <path
       d="m 224.802,263.436 c -14.289,7.883 -29.974,11.825 -47.111,11.825 -13.769,0 -26.526,-2.6 -38.297,-7.801 -3.284,-1.451 -6.159,-3.395 -9.225,-5.147 l -63.262,15.33 20.914,-64.741 c -4.544,-11.551 -6.87,-23.815 -6.87,-36.873 0,-13.441 2.518,-26.197 7.555,-38.297 5.036,-12.099 11.853,-22.583 20.421,-31.48 8.541,-8.897 18.724,-15.932 30.467,-21.16 11.744,-5.202 24.501,-7.802 38.297,-7.802 14.782,0 28.442,2.847 41.062,8.568 6.761,3.066 12.975,6.816 18.724,11.141 l 53.27,-54.94 C 278.018,31.219 263.866,22.185 248.208,15.068 226.363,5.158 202.876,0.204 177.691,0.204 153.52,0.204 130.662,4.748 109.173,13.809 87.684,22.869 68.878,35.407 52.754,51.339 36.631,67.299 23.874,85.858 14.458,107.018 5.04,128.179 0.36,150.845 0.36,175.016 c 0,24.172 4.708,46.865 14.098,68.026 9.39,21.16 22.173,39.638 38.297,55.405 16.123,15.795 34.93,28.223 56.418,37.284 21.489,9.061 44.347,13.605 68.518,13.605 27.539,0 52.97,-5.803 76.32,-17.382 23.323,-11.58 43.06,-27.293 59.183,-47.112 l -53.407,-52.887 c -9.034,13.085 -20.695,23.597 -34.985,31.481 z"
       fill="#000000"
       id="path9" />
    <path
       d="M 194.8,259.275 107.476,171.95 145.28,134.146 194.8,183.639 311.169,67.271 349,105.075 Z"
       fill="#ed3833"
       id="path10" />
    <rect
       width="53.613998"
       height="84.766998"
       x="267.47501"
       y="-92.662003"
       fill="#0000ff"
       transform="rotate(45)"
       id="rect10" />
    <rect
       width="53.653"
       height="82.482002"
       x="267.48099"
       y="-172.395"
       fill="#e3ab00"
       transform="rotate(45)"
       id="rect11" />
  </g>
</svg>
